<?xml version="1.0" encoding="UTF-8" standalone="no"?>
<!-- Created with Inkscape (http://www.inkscape.org/) -->

<svg
   width="45.539089mm"
   height="45.539089mm"
   viewBox="0 0 45.539089 45.539089"
   version="1.1"
   id="svg1"
   xmlns="http://www.w3.org/2000/svg"
   xmlns:svg="http://www.w3.org/2000/svg">
  <style
     id="style2">
.measure-arrow
{
}
.measure-label
{

}
.measure-line
{
}</style>
  <defs
     id="defs1" />
  <g
     id="layer1"
     transform="translate(-127.96265,-119.29199)">
    <g
       id="g67">
      <g
         id="g41"
         transform="translate(-1.8904963,80.878361)">
        <circle
           style="fill:#ffffff;stroke:#00ff00;stroke-width:0;stroke-linecap:round;stroke-linejoin:round;stroke-dasharray:none"
           id="circle42"
           cx="152.62268"
           cy="61.183167"
           r="22.769543" />
        <circle
           style="fill:#008000;stroke:#00ff00;stroke-width:2.64583;stroke-linecap:round;stroke-linejoin:round;stroke-dasharray:none"
           id="circle40"
           cx="152.62268"
           cy="61.183159"
           r="18.854073" />
        <path
           style="fill:none;stroke:#00ff00;stroke-width:2.30525;stroke-linecap:round;stroke-linejoin:round;stroke-dasharray:none"
           d="m 134.00831,61.429285 c 0,0 0.949,5.201792 2.18404,5.201792 1.23504,0 1.14916,-10.396513 2.43891,-10.39593 1.28975,5.83e-4 2.15317,14.71827 3.43892,14.71827 1.28575,0 1.50233,-19.074701 3.43891,-19.04061 1.93658,0.03409 1.18572,23.80373 3.43892,23.80373 2.2532,0 1.21144,-29.06685 3.43891,-29.066851 2.22747,-1e-6 1.72889,29.066851 3.43892,29.066851 1.71003,0 1.82227,-23.80373 3.43891,-23.80373 1.61664,0 2.04509,19.04061 3.43892,19.04061 1.39383,0 1.67534,-14.71827 3.43891,-14.71827 1.76357,0 0.81234,10.39593 2.43891,10.39593 1.62657,0 2.65556,-5.201792 2.65556,-5.201792"
           id="path41" />
      </g>
      <g
         id="g66"
         transform="translate(2.5268457,-130.35602)">
        <path
           style="fill:none;stroke:#ffffff;stroke-width:2.64583;stroke-linecap:round;stroke-linejoin:round;stroke-dasharray:none"
           d="m 177.9319,279.09567 c 1.83103,-1.69182 2.97863,-4.11263 2.97863,-6.80217 -6.5e-4,-2.58345 -1.08046,-5.04918 -2.97863,-6.80165"
           id="path60" />
        <path
           style="fill:none;stroke:#ffffff;stroke-width:2.64582;stroke-linecap:round;stroke-linejoin:round;stroke-dasharray:none"
           d="m 181.13274,282.65462 c 2.80438,-2.56801 4.56352,-6.25891 4.56355,-10.36112 -4.4e-4,-3.94106 -1.65653,-7.70064 -4.56406,-10.36113"
           id="path64" />
        <path
           style="fill:none;stroke:#ffffff;stroke-width:2.64583;stroke-linecap:round;stroke-linejoin:round;stroke-dasharray:none"
           d="m 184.33306,286.21361 c 3.77794,-3.44413 6.14892,-8.40506 6.14898,-13.92008 -3.1e-4,-5.29851 -2.2327,-10.35177 -6.14949,-13.92008"
           id="path65" />
      </g>
      <g
         id="g65"
         transform="translate(-44.513087,-130.36219)">
        <path
           style="fill:none;stroke:#ffffff;stroke-width:2.64583;stroke-linecap:round;stroke-linejoin:round;stroke-dasharray:none"
           d="m 165.51871,265.36162 c -1.98749,1.75597 -3.12673,4.2798 -3.12901,6.93188 0,2.76102 1.20973,5.23836 3.12642,6.93497"
           id="path63" />
        <path
           style="fill:none;stroke:#ffffff;stroke-width:2.64582;stroke-linecap:round;stroke-linejoin:round;stroke-dasharray:none"
           d="m 162.30547,261.82385 c -2.98647,2.66122 -4.69663,6.46952 -4.70152,10.46965 3e-5,4.16515 1.81447,7.90515 4.69428,10.47739"
           id="path61" />
        <path
           style="fill:none;stroke:#ffffff;stroke-width:2.64583;stroke-linecap:round;stroke-linejoin:round;stroke-dasharray:none"
           d="m 159.09223,258.28608 c -3.98548,3.56642 -6.26659,8.65921 -6.27404,14.00742 6e-5,5.56926 2.4192,10.57205 6.26215,14.01981"
           id="path62" />
      </g>
    </g>
  </g>
</svg>
